<svg version="1.1" xmlns="http://www.w3.org/2000/svg" xmlns:xlink="http://www.w3.org/1999/xlink" width="441.6666666666667" height="280"><style xmlns="http://www.w3.org/1999/xhtml"></style><defs><clipPath id="nIkGFDwoTsgf"><path fill="none" stroke="none" d="M 0 0 L 151.66666666666669 0 L 151.66666666666669 260 L 0 260 Z"/></clipPath><linearGradient id="HTlzJCfDCaOi" x1="11.597px" x2="11.597px" y1="100px" y2="19.774px" gradientUnits="userSpaceOnUse"><stop offset="0" stop-color="#000"/><stop offset="0.0439" stop-color="#1F1F1F"/><stop offset="0.1106" stop-color="#474747"/><stop offset="0.1837" stop-color="#6B6B6B"/><stop offset="0.2626" stop-color="#898989"/><stop offset="0.3491" stop-color="#A1A1A1"/><stop offset="0.4463" stop-color="#B4B4B4"/><stop offset="0.5602" stop-color="#C1C1C1"/><stop offset="0.7066" stop-color="#C9C9C9"/><stop offset="1" stop-color="#CBCBCB"/></linearGradient><linearGradient id="mAKAccCRglkQ" x1="8.6157px" x2="8.6157px" y1="93.235px" y2="26.467px" gradientUnits="userSpaceOnUse"><stop offset="0" stop-color="#000"/><stop offset="0.056" stop-color="#1C1C1C"/><stop offset="0.1355" stop-color="#3C3C3C"/><stop offset="0.2178" stop-color="#555"/><stop offset="0.3032" stop-color="#676767"/><stop offset="0.3935" stop-color="#727272"/><stop offset="0.4969" stop-color="#757575"/><stop offset="0.6735" stop-color="#737373"/><stop offset="0.7585" stop-color="#6B6B6B"/><stop offset="0.8239" stop-color="#5E5E5E"/><stop offset="0.8793" stop-color="#4C4C4C"/><stop offset="0.9284" stop-color="#343434"/><stop offset="0.9723" stop-color="#171717"/><stop offset="1" stop-color="#000"/></linearGradient><linearGradient id="ZfqgUZINUIMV" x1="18.859px" x2="18.859px" y1="88.487px" y2="31.69px" gradientUnits="userSpaceOnUse"><stop offset="0" stop-color="#000"/><stop offset="0.056" stop-color="#1C1C1C"/><stop offset="0.1355" stop-color="#3C3C3C"/><stop offset="0.2178" stop-color="#555"/><stop offset="0.3032" stop-color="#676767"/><stop offset="0.3935" stop-color="#727272"/><stop offset="0.4969" stop-color="#757575"/><stop offset="0.6735" stop-color="#737373"/><stop offset="0.7585" stop-color="#6B6B6B"/><stop offset="0.8239" stop-color="#5E5E5E"/><stop offset="0.8793" stop-color="#4C4C4C"/><stop offset="0.9284" stop-color="#343434"/><stop offset="0.9723" stop-color="#171717"/><stop offset="1" stop-color="#000"/></linearGradient><clipPath id="UVDZkUtShVPo"><path fill="none" stroke="none" d="M 0 0 L 117.0731707317073 0 L 117.0731707317073 80 L 0 80 Z"/></clipPath><clipPath id="haxDReCdkxJT"><path fill="none" stroke="none" d="M 4.972 33.474 L 4.985 29.013 L 18.725 36.945 L 18.712 41.406 L 4.972 33.474 Z"/></clipPath><clipPath id="bFbEKwuXgvdJ"><path fill="none" stroke="none" d="M 20.458 42.315 L 20.471 37.854 L 34.211 45.787 L 34.198 50.248 L 20.458 42.315 Z"/></clipPath><clipPath id="iuTCKBhRdICo"><path fill="none" stroke="none" d="M 36.002 51.347 L 36.015 46.886 L 49.755 54.818 L 49.742 59.279 L 36.002 51.347 Z"/></clipPath></defs><g transform="translate(0,0)"><g><rect fill="rgb(0,0,0)" stroke="none" x="0" y="0" width="441.6666666666667" height="280" fill-opacity="0"/></g><g transform="translate(0,0) matrix(1,0,0,1,270,0)"><g><g transform="translate(0,0)" clip-path="url(#nIkGFDwoTsgf)"><g transform="translate(0,0) scale(2.6149425287356327,2.6)"><g><g><path fill="rgb(0,0,0)" stroke="rgb(0,0,0)" d="M 0 0 L 58 0 Q 58 0 58 0 L 58 100 Q 58 100 58 100 L 0 100 Q 0 100 0 100 L 0 0 Q 0 0 0 0 Z" fill-opacity="0" stroke-opacity="0" stroke-miterlimit="10"/></g><g><path fill="#003366" stroke="rgb(0,0,0)" d="M 8.366 29.038 L 11.404 29.104 L 14.554 32.963 L 14.554 91.631 L 8.34 91.211 L 8.366 29.038 Z" stroke-opacity="0" stroke-miterlimit="10"/></g></g><g><g><path fill="rgb(0,0,0)" stroke="rgb(0,0,0)" d="M 0 0 L 58 0 Q 58 0 58 0 L 58 100 Q 58 100 58 100 L 0 100 Q 0 100 0 100 L 0 0 Q 0 0 0 0 Z" fill-opacity="0" stroke-opacity="0" stroke-miterlimit="10"/></g><g><path fill="#5F5F5F" stroke="rgb(0,0,0)" d="M 58 13.28 L 58 79.837 L 40.604 89.842 L 40.604 23.142 L 58 13.28 Z" stroke-opacity="0" stroke-miterlimit="10"/></g><g><path fill="#707070" stroke="rgb(0,0,0)" d="M 40.604 23.142 L 40.604 89.842 L 23.194 100 L 23.194 33.3 L 40.604 23.142 Z" stroke-opacity="0" stroke-miterlimit="10"/></g><g><path fill="#878787" stroke="rgb(0,0,0)" d="M 0 19.774 L 34.836 0 L 58 13.28 L 23.194 33.3 L 0 19.774 Z" stroke-opacity="0" stroke-miterlimit="10"/></g><g><path fill="url(#HTlzJCfDCaOi)" stroke="rgb(0,0,0)" d="M 0 19.774 L 0 86.66 L 23.194 100 L 23.194 33.3 L 0 19.774 Z M 13.036 83.212 L 11.432 81.911 L 11.432 91.453 L 9.764 91.322 L 9.764 29.104 L 11.405 29.104 L 13.036 31.103 L 13.036 83.212 Z" stroke-opacity="0" stroke-miterlimit="10"/></g><g><path fill="#3B3B3B" stroke="rgb(0,0,0)" d="M 2.899 21.465 L 2.899 88.328 L 5.799 93.18 L 5.799 26.479 L 2.899 21.465 Z" stroke-opacity="0" stroke-miterlimit="10"/></g><g><path fill="url(#mAKAccCRglkQ)" stroke="rgb(0,0,0)" d="M 8.408 91.094 L 8.366 29.038 L 11.404 29.104 L 11.42 26.467 L 5.799 26.479 L 5.799 93.18 L 11.432 93.235 L 11.432 91.288 L 8.408 91.094 Z" stroke-opacity="0" stroke-miterlimit="10"/></g><g><path fill="#505050" stroke="rgb(0,0,0)" d="M 14.554 32.963 L 14.554 84.445 L 11.432 81.911 L 11.432 84.368 L 16.282 88.428 L 16.282 32.133 L 11.42 26.467 L 11.404 29.104 L 14.554 32.963 Z" stroke-opacity="0" stroke-miterlimit="10"/></g><g><path fill="url(#ZfqgUZINUIMV)" stroke="rgb(0,0,0)" d="M 21.435 32.211 L 21.349 87.723 L 16.282 88.487 L 16.282 31.689 L 21.435 32.211 Z" stroke-opacity="0" stroke-miterlimit="10"/></g><g><path fill="#676767" stroke="rgb(0,0,0)" d="M 11.42 26.467 L 2.899 21.465 L 5.799 26.479 L 11.42 26.467 Z" stroke-opacity="0" stroke-miterlimit="10"/></g><g><path fill="#676767" stroke="rgb(0,0,0)" d="M 21.435 32.211 L 11.404 26.479 L 16.282 32.133 L 21.435 32.211 Z" stroke-opacity="0" stroke-miterlimit="10"/></g><g><path fill="#171717" stroke="rgb(0,0,0)" d="M 8.408 91.094 L 8.407 89.599 L 11.432 91.288 L 8.408 91.094 Z" stroke-opacity="0" stroke-miterlimit="10"/></g><g><path fill="#2A2A2A" stroke="rgb(0,0,0)" d="M 11.448 81.937 L 14.554 84.445 L 14.554 82.786 L 11.448 81.937 Z" stroke-opacity="0" stroke-miterlimit="10"/></g></g></g></g></g></g><g transform="translate(0,0) matrix(1,0,0,1,0,90)"><g><g transform="translate(0,0)" clip-path="url(#UVDZkUtShVPo)"><g transform="translate(0,0) scale(1.1707317073170729,1.1764705882352942)"><g><g><path fill="rgb(0,0,0)" stroke="rgb(0,0,0)" d="M 0 0 L 100 0 Q 100 0 100 0 L 100 68 Q 100 68 100 68 L 0 68 Q 0 68 0 68 L 0 0 Q 0 0 0 0 Z" fill-opacity="0" stroke-opacity="0" stroke-miterlimit="10"/></g><g><path fill="#003366" stroke="rgb(0,0,0)" d="M 50.822 53.796 C 50.822 53.159 51.276 52.9 51.832 53.219 L 55.392 55.261 C 55.945 55.577 56.396 56.358 56.394 56.993 L 56.388 63.737 C 56.387 64.374 55.935 64.633 55.382 64.317 L 51.834 62.293 C 51.276 61.977 50.822 61.193 50.822 60.558 L 50.822 53.796 Z" stroke-opacity="0" stroke-miterlimit="10"/></g></g><g><g><path fill="rgb(0,0,0)" stroke="rgb(0,0,0)" d="M 0 0 L 100 0 Q 100 0 100 0 L 100 68 Q 100 68 100 68 L 0 68 Q 0 68 0 68 L 0 0 Q 0 0 0 0 Z" fill-opacity="0" stroke-opacity="0" stroke-miterlimit="10"/></g><g><g><path fill="#DCDCDC" stroke="rgb(0,0,0)" d="M 4.917 33.282 L 4.379 33.58 C 2.041 32.232 1.989 32.114 1.612 31.917 C 0.864 31.525 0.042 30.644 0.042 29.698 C 0.042 28.916 0.003 25.718 0.005 24.157 C 0.005 23.82 0.394 23.523 0.398 23.381 C 1.501 22.551 1.8 22.377 2.898 23.012 C 4 23.648 4.972 24.249 4.972 24.249 L 4.917 33.282 Z" stroke-opacity="0" stroke-miterlimit="10"/></g><g><path fill="#ACACAC" stroke="rgb(0,0,0)" d="M 3.422 35.209 C 3.422 35.209 1.083 34.016 0.941 33.91 C 0.379 33.492 0.013 33.063 0.013 32.226 C 0.013 31.387 0.013 24.334 0.013 24.334 C 0.013 24.334 0 22.818 1.167 23.49 C 2.012 23.978 3.441 24.802 3.441 24.802 L 3.422 35.209 Z" stroke-opacity="0" stroke-miterlimit="10"/></g></g><g><path fill="#757575" stroke="rgb(0,0,0)" d="M 3.367 24.76 L 3.349 35.166 L 57.467 66.089 L 57.482 55.794 L 3.367 24.76 Z M 56.284 63.283 C 56.283 63.862 55.871 64.098 55.369 63.81 L 52.143 61.97 C 51.639 61.682 51.226 60.97 51.226 60.392 L 51.226 54.246 C 51.226 53.667 51.639 53.432 52.141 53.721 L 55.377 55.577 C 55.879 55.865 56.29 56.574 56.289 57.152 L 56.284 63.283 Z" stroke-opacity="0" stroke-miterlimit="10"/></g><g><path fill="#494949" stroke="rgb(0,0,0)" d="M 100 31.096 L 100 40.553 L 57.467 66.089 L 57.481 55.889 L 100 31.096 Z" stroke-opacity="0" stroke-miterlimit="10"/></g><g><path fill="#898989" stroke="rgb(0,0,0)" d="M 100 31.096 L 58.965 55.193 L 4.609 24.033 L 46.674 0 L 100 31.096 Z" stroke-opacity="0" stroke-miterlimit="10"/></g><g><g><g><path fill="#7A7A7A" stroke="rgb(0,0,0)" d="M 57.481 55.794 L 58.722 55.054 C 59.929 55.736 60.688 56.211 61.685 56.817 C 62.39 57.243 62.79 58.161 62.778 59.046 C 62.762 60.109 62.807 66.043 62.778 66.6 C 62.737 67.291 62.13 67.46 61.242 67.978 C 60.916 67.997 60.57 67.959 60.065 67.655 C 58.769 66.871 57.466 66.091 57.466 66.091 L 57.481 55.794 Z" stroke-opacity="0" stroke-miterlimit="10"/></g><g><path fill="#A8A8A8" stroke="rgb(0,0,0)" d="M 57.481 55.794 C 57.481 55.794 60.269 57.43 60.457 57.543 C 61.462 58.159 61.686 58.839 61.686 59.902 C 61.686 60.965 61.686 67.134 61.686 67.134 C 61.686 67.134 61.745 68.666 60.066 67.653 C 59.066 67.049 57.467 66.089 57.467 66.089 L 57.481 55.794 Z" stroke-opacity="0" stroke-miterlimit="10"/></g></g></g><g><path fill="#DCDCDC" stroke="rgb(0,0,0)" d="M 3.367 24.76 L 4.609 24.033 L 58.723 55.054 L 57.481 55.794 L 3.367 24.76 Z" stroke-opacity="0" stroke-miterlimit="10"/></g><g><g><g clip-path="url(#haxDReCdkxJT)"><g><g><path fill="#171717" stroke="rgb(0,0,0)" d="M 5.536 33.159 L 5.539 31.817 L 14.382 36.922 L 14.378 38.264 L 5.536 33.159 M 5.541 31.325 L 5.545 29.982 L 14.388 35.088 L 14.384 36.43 L 5.541 31.325 M 18.725 36.945 L 4.985 29.012 L 4.972 33.473 L 18.712 41.406 L 18.725 36.945" stroke-opacity="0" stroke-miterlimit="10"/></g><g><path fill="#888888" stroke="rgb(0,0,0)" d="M 14.388 35.089 L 5.545 29.982 L 5.541 31.325 L 14.384 36.431 L 14.388 35.089" stroke-opacity="0" stroke-miterlimit="10"/></g><g><path fill="#888888" stroke="rgb(0,0,0)" d="M 14.383 36.923 L 5.54 31.817 L 5.536 33.159 L 14.379 38.265 L 14.383 36.923" stroke-opacity="0" stroke-miterlimit="10"/></g></g></g></g></g><g><g><g clip-path="url(#bFbEKwuXgvdJ)"><g><g><path fill="#171717" stroke="rgb(0,0,0)" d="M 21.022 42.001 L 21.025 40.659 L 29.868 45.764 L 29.864 47.106 L 21.022 42.001 M 21.027 40.167 L 21.031 38.824 L 29.874 43.93 L 29.87 45.272 L 21.027 40.167 M 34.211 45.787 L 20.471 37.854 L 20.458 42.315 L 34.198 50.248 L 34.211 45.787" stroke-opacity="0" stroke-miterlimit="10"/></g><g><path fill="#888888" stroke="rgb(0,0,0)" d="M 29.874 43.931 L 21.031 38.824 L 21.027 40.167 L 29.87 45.272 L 29.874 43.931" stroke-opacity="0" stroke-miterlimit="10"/></g><g><path fill="#888888" stroke="rgb(0,0,0)" d="M 29.869 45.765 L 21.025 40.659 L 21.022 42.001 L 29.865 47.106 L 29.869 45.765" stroke-opacity="0" stroke-miterlimit="10"/></g></g></g></g></g><g><g><g clip-path="url(#iuTCKBhRdICo)"><g><g><path fill="#171717" stroke="rgb(0,0,0)" d="M 36.566 51.032 L 36.569 49.69 L 45.412 54.795 L 45.408 56.137 L 36.566 51.032 M 36.571 49.198 L 36.575 47.855 L 45.418 52.961 L 45.414 54.303 L 36.571 49.198 M 49.755 54.818 L 36.015 46.885 L 36.002 51.346 L 49.742 59.279 L 49.755 54.818" stroke-opacity="0" stroke-miterlimit="10"/></g><g><path fill="#888888" stroke="rgb(0,0,0)" d="M 45.418 52.962 L 36.575 47.855 L 36.571 49.198 L 45.414 54.304 L 45.418 52.962" stroke-opacity="0" stroke-miterlimit="10"/></g><g><path fill="#888888" stroke="rgb(0,0,0)" d="M 45.413 54.796 L 36.569 49.69 L 36.566 51.032 L 45.409 56.138 L 45.413 54.796" stroke-opacity="0" stroke-miterlimit="10"/></g></g></g></g></g><g><g transform="matrix(0.8529,-0.522,0.522,0.8529,-16.7559,5.3071)"><path fill="#494949" stroke="rgb(0,0,0)" d="M 1.041 30.937 C 1.502158 30.937 1.876 31.58753 1.876 32.39 C 1.876 33.19247 1.502158 33.843 1.041 33.843 C 0.5798422 33.843 0.206 33.19247 0.206 32.39 C 0.206 31.58753 0.5798422 30.937 1.041 30.937 Z" stroke-opacity="0" stroke-miterlimit="10"/></g><g><path fill="#838384" stroke="rgb(0,0,0)" d="M 0.36 31.109 L 1.135 30.634 C 1.135 30.634 1.715 30.633 2.148 31.077 C 2.257 31.188 2.533 31.428 2.702 31.978 C 2.892 32.595 2.702 33.102 2.702 33.102 L 1.906 33.53 C 1.906 33.53 2.13 33.208 2.085 32.818 C 2.042 32.446 1.618 31.725 1.373 31.488 C 0.897 31.03 0.36 31.109 0.36 31.109 Z" stroke-opacity="0" stroke-miterlimit="10"/></g></g><g><g transform="matrix(0.8528,-0.5223,0.5223,0.8528,-25.5685,40.4621)"><path fill="#494949" stroke="rgb(0,0,0)" d="M 58.981 64.127 C 59.44216 64.127 59.816 64.77798 59.816 65.581 C 59.816 66.38402 59.44216 67.035 58.981 67.035 C 58.51984 67.035 58.146 66.38402 58.146 65.581 C 58.146 64.77798 58.51984 64.127 58.981 64.127 Z" stroke-opacity="0" stroke-miterlimit="10"/></g><g><path fill="#838384" stroke="rgb(0,0,0)" d="M 58.301 64.3 L 59.076 63.825 C 59.076 63.825 59.656 63.824 60.089 64.268 C 60.197 64.379 60.474 64.619 60.643 65.169 C 60.833 65.786 60.643 66.293 60.643 66.293 L 59.848 66.721 C 59.848 66.721 60.071 66.399 60.026 66.009 C 59.983 65.637 59.559 64.916 59.314 64.679 C 58.838 64.221 58.301 64.3 58.301 64.3 Z" stroke-opacity="0" stroke-miterlimit="10"/></g></g><g><g transform="matrix(0.8528,-0.5223,0.5223,0.8528,-22.2469,39.5258)"><path fill="#494949" stroke="rgb(0,0,0)" d="M 58.981 57.767 C 59.44216 57.767 59.816 58.41798 59.816 59.221 C 59.816 60.02402 59.44216 60.675 58.981 60.675 C 58.51984 60.675 58.146 60.02402 58.146 59.221 C 58.146 58.41798 58.51984 57.767 58.981 57.767 Z" stroke-opacity="0" stroke-miterlimit="10"/></g><g><path fill="#838384" stroke="rgb(0,0,0)" d="M 58.301 57.94 L 59.076 57.465 C 59.076 57.465 59.656 57.464 60.089 57.908 C 60.197 58.019 60.474 58.259 60.643 58.809 C 60.833 59.426 60.643 59.933 60.643 59.933 L 59.848 60.361 C 59.848 60.361 60.071 60.039 60.026 59.649 C 59.983 59.277 59.559 58.556 59.314 58.319 C 58.838 57.861 58.301 57.94 58.301 57.94 Z" stroke-opacity="0" stroke-miterlimit="10"/></g></g><g transform="matrix(0.8529,-0.522,0.522,0.8529,-13.5748,4.4109)"><path fill="#494949" stroke="rgb(0,0,0)" d="M 1.041 24.843 C 1.502158 24.843 1.876 25.49353 1.876 26.296 C 1.876 27.09847 1.502158 27.749 1.041 27.749 C 0.5798422 27.749 0.206 27.09847 0.206 26.296 C 0.206 25.49353 0.5798422 24.843 1.041 24.843 Z" stroke-opacity="0" stroke-miterlimit="10"/></g><g><path fill="#838384" stroke="rgb(0,0,0)" d="M 0.36 25.016 L 1.135 24.541 C 1.135 24.541 1.715 24.54 2.148 24.984 C 2.257 25.095 2.533 25.335 2.702 25.885 C 2.892 26.502 2.702 27.009 2.702 27.009 L 1.922 27.437 C 1.922 27.437 2.13 27.115 2.085 26.725 C 2.042 26.353 1.618 25.632 1.373 25.395 C 0.897 24.937 0.36 25.016 0.36 25.016 Z" stroke-opacity="0" stroke-miterlimit="10"/></g></g></g></g></g></g><g transform="translate(0,0) matrix(-1,1.2246467991473532e-16,-1.2246467991473532e-16,-1,230,150)"><g><g transform="translate(0,0) scale(0.8,0.4)"><g><g transform="scale(1.25,2.5)"><path fill="#CCCCCC" stroke="none" d="M 0 20 L 20 0 L 20 12 L 80 12 L 80 28 L 20 28 L 20 40 L 0 20 Z"/><path fill="none" stroke="#333333" d="M 0 20 M 0 20 L 20 0 L 20 12 L 80 12 L 80 28 L 20 28 L 20 40 L 0 20 Z" stroke-miterlimit="10" stroke-width="2"/></g></g></g></g></g></g></svg>